<?xml version="1.0" encoding="UTF-8" standalone="no"?>
<!DOCTYPE svg PUBLIC "-//W3C//DTD SVG 1.1//EN" "http://www.w3.org/Graphics/SVG/1.1/DTD/svg11.dtd">
<svg xmlns="http://www.w3.org/2000/svg" version="1.1" viewBox="0.00 0.00 183.00 181.00">
<path fill="#000000" d="
  M 156.10 97.10
  C 154.17 99.00 152.27 101.29 150.13 103.19
  Q 149.75 103.52 149.75 104.02
  Q 149.74 105.42 149.94 106.76
  Q 152.79 126.12 155.52 145.50
  C 155.71 146.89 154.12 149.24 152.93 150.43
  Q 141.80 161.57 130.67 172.71
  C 125.71 177.67 121.68 178.30 117.85 171.94
  Q 111.13 160.78 104.47 149.73
  A 0.55 0.55 0.0 0 0 103.58 149.65
  C 99.71 153.99 94.27 161.47 87.90 155.35
  Q 78.73 146.54 69.90 137.36
  C 67.08 134.42 67.17 130.58 70.24 127.92
  C 74.05 124.62 77.43 127.39 80.54 130.37
  Q 86.58 136.17 92.09 141.99
  A 1.06 1.06 0.0 0 0 93.61 142.01
  Q 121.00 114.63 148.43 87.18
  C 161.67 73.94 166.20 49.65 164.48 31.76
  C 163.77 24.39 159.73 18.79 152.18 17.77
  C 130.67 14.86 107.78 20.38 92.07 36.07
  Q 65.76 62.34 39.78 88.35
  A 0.91 0.91 0.0 0 0 39.78 89.63
  C 43.28 93.16 53.71 101.91 55.12 106.12
  C 56.57 110.44 51.66 115.25 47.37 113.80
  Q 45.61 113.21 42.76 110.37
  Q 34.21 101.86 25.69 93.31
  C 20.58 88.18 28.29 81.75 31.79 78.80
  A 1.04 1.03 -49.8 0 0 31.65 77.12
  Q 20.67 70.58 10.40 64.29
  C 4.69 60.80 3.24 57.12 8.27 52.10
  Q 20.61 39.76 32.95 27.44
  Q 34.42 25.97 37.75 26.45
  Q 57.35 29.28 77.38 32.16
  A 1.45 1.44 26.7 0 0 78.57 31.77
  C 87.32 23.16 94.61 16.03 107.13 11.05
  C 125.69 3.67 168.48 -3.99 175.55 24.46
  C 181.36 47.87 173.63 79.87 156.10 97.10
  Z
  M 65.08 43.10
  Q 52.26 41.14 39.31 39.46
  A 1.12 1.10 -63.5 0 0 38.38 39.78
  L 22.53 55.53
  A 0.98 0.97 -52.0 0 0 22.71 57.06
  L 41.12 68.11
  A 1.05 1.05 0.0 0 0 42.40 67.95
  L 65.78 44.65
  A 0.62 0.59 -16.8 0 0 65.94 44.37
  Q 66.25 43.28 65.08 43.10
  Z
  M 138.63 115.58
  A 0.38 0.38 0.0 0 0 137.98 115.37
  L 113.53 139.85
  A 0.38 0.38 0.0 0 0 113.47 140.31
  L 125.14 159.84
  A 0.38 0.38 0.0 0 0 125.73 159.91
  L 142.42 143.19
  A 0.38 0.38 0.0 0 0 142.52 142.87
  L 138.63 115.58
  Z"
/>
<path fill="#000000" d="
  M 139.44 63.32
  A 22.17 22.17 0.0 0 1 117.27 85.49
  A 22.17 22.17 0.0 0 1 95.10 63.32
  A 22.17 22.17 0.0 0 1 117.27 41.15
  A 22.17 22.17 0.0 0 1 139.44 63.32
  Z
  M 128.79 63.35
  A 11.50 11.50 0.0 0 0 117.29 51.85
  A 11.50 11.50 0.0 0 0 105.79 63.35
  A 11.50 11.50 0.0 0 0 117.29 74.85
  A 11.50 11.50 0.0 0 0 128.79 63.35
  Z"
/>
<rect fill="#000000" x="-6.19" y="-15.03" transform="translate(17.78,126.54) rotate(45.0)" width="12.38" height="30.06" rx="6.00"/>
<rect fill="#000000" x="-6.25" y="-23.87" transform="translate(30.27,151.55) rotate(44.8)" width="12.50" height="47.74" rx="6.11"/>
<rect fill="#000000" x="-6.18" y="-15.00" transform="translate(55.28,164.10) rotate(45.0)" width="12.36" height="30.00" rx="6.00"/>
</svg>
